<svg width="22" height="38" viewBox="0 0 22 38" fill="none" xmlns="http://www.w3.org/2000/svg">
<path d="M20.4504 1.80751C20.7517 2.10818 20.9908 2.46532 21.1538 2.85848C21.3169 3.25164 21.4009 3.67311 21.4009 4.09876C21.4009 4.52441 21.3169 4.94588 21.1538 5.33904C20.9908 5.7322 20.7517 6.08934 20.4504 6.39001L7.84044 19L20.4504 31.61C21.0581 32.2177 21.3995 33.0419 21.3995 33.9013C21.3995 34.7606 21.0581 35.5848 20.4504 36.1925C19.8428 36.8002 19.0186 37.1416 18.1592 37.1416C17.2998 37.1416 16.4756 36.8002 15.8679 36.1925L0.950435 21.275C0.649149 20.9743 0.410119 20.6172 0.247029 20.224C0.0839396 19.8309 -5.48363e-06 19.4094 -5.48363e-06 18.9838C-5.48363e-06 18.5581 0.0839396 18.1366 0.247029 17.7435C0.410119 17.3503 0.649149 16.9932 0.950435 16.6925L15.8679 1.77501C17.1029 0.54001 19.1829 0.540011 20.4504 1.80751Z" fill="white"/>
</svg>
